# xmcd
#
# Track frame offsets:
#       150
#       20446
#       32420
#       42282
#       44189
#       57683
#       75283
#       87709
#       104205
#       110284
#       133647
#       151160
#       159772
#       179111
#       199296
#       212081
#       242329
#
# Disc length: 3480 seconds
#
# Revision: 0
# Processed by: cddbd v1.4PL0 Copyright (c) Steve Scherf et al.
# Submitted via: CD-DA_X-Tractor v0.21
#
DISCID=ea0d9611
DTITLE=Ben and Staffro (Kivat Pojat) - Taajuus
DYEAR=1900
DGENRE=
TTITLE0=Chopataan ja Juostaan Saleen
TTITLE1=Maanalainen MC
TTITLE2=Hyv‰ Meininki
TTITLE3=V‰lisoitto (Supersessio)
TTITLE4=V‰‰r‰ll‰ Asenteella
TTITLE5=Hallitus Tekee Kansanmurhaa
TTITLE6=Pattitilanne
TTITLE7=Hyydytyksen Silm‰
TTITLE8=V‰lisoitto (Ben)
TTITLE9=Valvontakamerat Katuja Valvoo
TTITLE10=Historiikki
TTITLE11=V‰lisoitto (Staffro)
TTITLE12=Tyyli‰ Luovaa
TTITLE13=Hip Hop-Taajuus
TTITLE14=Kiitos
TTITLE15=KPC
TTITLE16=Hidden Track
EXTD=
EXTT0=
EXTT1=
EXTT2=
EXTT3=
EXTT4=
EXTT5=
EXTT6=
EXTT7=
EXTT8=
EXTT9=
EXTT10=
EXTT11=
EXTT12=
EXTT13=
EXTT14=
EXTT15=
EXTT16=
PLAYORDER=
